<?xml version="1.0" encoding="UTF-8" standalone="no"?>
<!-- Created with Inkscape (http://www.inkscape.org/) -->

<svg
   width="303.38889mm"
   height="72.846672mm"
   viewBox="0 0 303.38889 72.846672"
   version="1.1"
   id="svg1"
   xml:space="preserve"
   xmlns:inkscape="http://www.inkscape.org/namespaces/inkscape"
   xmlns:sodipodi="http://sodipodi.sourceforge.net/DTD/sodipodi-0.dtd"
   xmlns="http://www.w3.org/2000/svg"
   xmlns:svg="http://www.w3.org/2000/svg"><sodipodi:namedview
     id="namedview1"
     pagecolor="#ffffff"
     bordercolor="#000000"
     borderopacity="0.25"
     inkscape:showpageshadow="2"
     inkscape:pageopacity="0.0"
     inkscape:pagecheckerboard="0"
     inkscape:deskcolor="#d1d1d1"
     inkscape:document-units="mm"><inkscape:page
       x="0"
       y="-1.805871e-22"
       width="303.38889"
       height="72.846664"
       id="page2"
       margin="0"
       bleed="0" /></sodipodi:namedview><defs
     id="defs1" /><g
     inkscape:label="Camada 1"
     inkscape:groupmode="layer"
     id="layer1"
     transform="translate(73.309041,-19.617145)"><g
       transform="matrix(0.03527778,0,0,-0.03527778,-112.82016,246.07596)"
       fill="#000000"
       stroke="none"
       id="g10"><g
         id="g31"
         inkscape:export-filename="Myrobot-Logomarca-Branca.svg"
         inkscape:export-xdpi="96"
         inkscape:export-ydpi="96"
         style="fill:#000000"><path
           d="m 4952,6404 c -79,-17 -167,-52 -236,-94 -123,-75 -262,-219 -323,-337 l -28,-52 -14,37 c -25,64 -96,166 -157,226 -72,70 -162,122 -269,155 -80,25 -82,25 -592,29 l -513,4 v -171 -171 h 65 65 v -615 -615 h 245 245 v 110 110 h 159 c 87,0 172,3 188,6 28,6 35,-2 221,-250 106,-140 196,-257 200,-260 7,-4 346,244 381,279 12,11 -11,46 -150,232 -90,120 -169,225 -175,233 -9,12 -4,25 22,64 28,42 34,47 40,30 24,-74 61,-158 92,-209 46,-75 159,-195 239,-251 284,-203 665,-203 963,-1 54,37 157,140 199,198 l 31,42 v -166 -167 h 463 c 509,0 549,4 663,60 70,34 169,133 200,198 l 19,39 78,-83 c 210,-224 491,-315 783,-255 295,61 541,285 634,576 41,129 38,408 -6,513 l -13,32 h 80 79 v -540 -540 h 245 245 v 540 540 h 200 200 v 245 245 l -647,-2 -648,-3 -3,-67 -3,-67 -47,36 c -71,55 -216,119 -312,138 -117,24 -316,17 -415,-15 -148,-47 -243,-107 -363,-230 -94,-95 -149,-183 -193,-305 l -18,-50 v 89 c -1,48 -8,115 -17,149 -38,146 -169,272 -319,305 -65,15 -161,17 -557,14 l -328,-2 v -162 l -1,-163 -26,35 c -52,68 -171,179 -239,222 -86,56 -178,94 -269,113 -87,18 -278,18 -363,-1 z m 1664,-425 c 48,-29 63,-82 38,-134 -25,-54 -60,-65 -204,-65 h -120 v 110 110 h 126 c 111,0 131,-3 160,-21 z m -1466,-66 c 0,-10 -22,-105 -49,-210 -27,-106 -46,-195 -43,-197 4,-1 90,21 192,50 102,29 195,55 208,59 21,5 22,2 22,-49 0,-123 -78,-240 -198,-298 -218,-104 -472,48 -490,292 -8,121 47,232 151,304 82,56 207,86 207,49 z m 2705,-190 c -29,-115 -50,-211 -46,-214 3,-3 88,18 189,47 101,28 195,55 209,59 l 26,6 -6,-70 c -7,-85 -31,-141 -86,-203 -49,-55 -140,-103 -218,-113 -142,-19 -306,83 -364,225 -23,56 -18,204 8,262 25,54 103,137 154,164 43,22 115,42 155,43 l 31,1 z m -4059,138 c 107,-49 138,-190 61,-278 -50,-57 -76,-63 -257,-63 h -160 v 180 180 h 158 c 132,0 164,-3 198,-19 z m 3263,-128 c -9,-50 -14,-60 -28,-56 -16,4 -16,8 6,50 13,26 23,53 23,61 0,9 2,13 5,11 2,-3 0,-33 -6,-66 z m -347,-333 c 20,-6 46,-22 58,-37 24,-31 27,-99 4,-131 -32,-46 -60,-52 -259,-52 h -185 v 115 115 h 173 c 94,0 189,-5 209,-10 z"
           id="path1"
           style="fill:#000000" /><path
           d="m 1122,5643 3,-398 h 120 120 l 5,184 5,183 78,-101 c 42,-55 81,-101 85,-101 4,1 41,46 82,101 l 75,101 5,-184 5,-183 h 120 120 l 3,398 2,397 h -123 -124 l -82,-105 c -45,-58 -85,-105 -89,-105 -4,1 -42,48 -85,105 l -77,105 h -125 -125 z"
           id="path2"
           style="fill:#000000" /><path
           d="m 2001,5983 c 49,-88 167,-290 208,-358 l 36,-60 5,-160 5,-160 123,-3 122,-3 v 149 148 l 140,245 c 77,134 140,247 140,252 0,4 -64,7 -142,7 h -143 l -55,-95 c -30,-52 -57,-95 -61,-95 -4,0 -32,43 -63,95 l -57,95 h -145 -145 z"
           id="path3"
           style="fill:#000000" /><path
           d="m 1120,5100 v -80 l 691,2 691,3 v 75 75 l -691,3 -691,2 z"
           id="path4"
           style="fill:#000000" /><path
           d="m 7792,4578 c -18,-18 -16,-202 1,-217 20,-16 27,-4 27,46 v 43 h 179 180 l 3,-47 c 2,-35 7,-48 18,-48 12,0 16,20 18,104 3,116 0,133 -23,125 -10,-4 -15,-20 -15,-50 v -44 h -180 -180 v 44 c 0,48 -10,62 -28,44 z"
           id="path5"
           style="fill:#000000" /><path
           d="m 9287,4584 c -4,-4 -7,-56 -7,-116 v -108 h 216 c 200,0 215,1 212,18 -3,15 -22,17 -195,20 l -192,2 -3,92 c -3,84 -12,111 -31,92 z"
           id="path6"
           style="fill:#000000" /><path
           d="m 6807,4562 c -23,-25 -21,-68 3,-92 18,-18 33,-20 189,-20 125,0 171,-3 179,-13 26,-31 -2,-37 -193,-39 -172,-3 -190,-5 -193,-20 -3,-17 11,-18 193,-18 116,0 204,4 216,10 25,14 27,81 3,101 -13,10 -65,15 -193,19 -173,5 -176,5 -179,27 l -3,23 193,2 c 174,3 193,5 196,21 3,16 -11,17 -196,17 -180,0 -200,-2 -215,-18 z"
           id="path7"
           style="fill:#000000" /><path
           d="m 7318,4551 c -29,-26 -33,-35 -33,-81 0,-46 4,-55 33,-81 l 32,-29 h 178 c 98,0 182,3 185,7 4,3 2,12 -4,20 -9,10 -52,13 -185,13 -167,0 -173,1 -188,22 -22,31 -20,74 4,98 18,18 33,20 189,20 129,0 171,3 180,13 6,8 8,17 4,20 -3,4 -87,7 -185,7 h -178 z"
           id="path8"
           style="fill:#000000" /><path
           d="m 8327,4557 c -55,-44 -54,-137 2,-177 26,-18 44,-20 171,-20 115,0 147,3 171,17 59,35 64,126 9,176 -30,27 -31,27 -178,27 -137,0 -149,-2 -175,-23 z m 337,-39 c 9,-12 16,-34 16,-48 0,-14 -7,-36 -16,-48 -14,-21 -22,-22 -159,-22 -143,0 -144,0 -164,26 -12,15 -21,34 -21,44 0,10 9,29 21,44 20,26 21,26 164,26 137,0 145,-1 159,-22 z"
           id="path9"
           style="fill:#000000" /><path
           d="m 8811,4549 c -26,-26 -31,-38 -31,-79 0,-41 5,-53 31,-79 l 31,-31 h 151 c 129,0 155,3 173,18 45,36 57,98 30,151 -23,44 -53,51 -211,51 h -143 z m 343,-31 c 21,-29 20,-77 -1,-100 -14,-16 -33,-18 -158,-18 -129,0 -144,2 -160,20 -22,25 -22,76 1,101 15,17 32,19 160,19 136,0 144,-1 158,-22 z"
           id="path10"
           style="fill:#000000" /></g></g></g></svg>
