<?xml version="1.0" encoding="UTF-8" standalone="no"?>
<!-- Created with Inkscape (http://www.inkscape.org/) -->

<svg
   width="42.432198mm"
   height="41.967262mm"
   viewBox="0 0 42.432198 41.967262"
   version="1.1"
   id="svg1"
   xml:space="preserve"
   xmlns:inkscape="http://www.inkscape.org/namespaces/inkscape"
   xmlns:sodipodi="http://sodipodi.sourceforge.net/DTD/sodipodi-0.dtd"
   xmlns="http://www.w3.org/2000/svg"
   xmlns:svg="http://www.w3.org/2000/svg"><sodipodi:namedview
     id="namedview1"
     pagecolor="#ffffff"
     bordercolor="#000000"
     borderopacity="0.25"
     inkscape:showpageshadow="2"
     inkscape:pageopacity="0.0"
     inkscape:pagecheckerboard="0"
     inkscape:deskcolor="#d1d1d1"
     inkscape:document-units="mm"><inkscape:page
       x="0"
       y="0"
       width="42.432198"
       height="41.967262"
       id="page2"
       margin="0"
       bleed="0" /></sodipodi:namedview><defs
     id="defs1" /><g
     inkscape:label="Camada 1"
     inkscape:groupmode="layer"
     id="layer1"
     transform="translate(-138.27984,-55.005124)"><path
       style="fill:#ffffff;fill-opacity:1"
       d="m 154.65508,96.618795 c -7.59463,-1.65166 -13.82441,-7.78337 -15.86185,-15.612151 -0.72876,-2.800251 -0.67403,-7.811308 0.1156,-10.583333 1.71027,-6.004006 6.18886,-11.297382 11.76695,-13.907685 1.60875,-0.752822 2.2955,-0.830054 2.2955,-0.258151 0,0.1225 -1.10132,0.762953 -2.44739,1.423229 -7.24361,3.553152 -11.57552,10.450653 -11.57552,18.431148 0,9.775353 6.37521,17.764973 16.13958,20.226623 2.655,0.66934 2.32842,0.88084 -0.43287,0.28032 z m 10.91699,-0.3451 c -0.22951,-0.37135 0.20053,-0.73053 1.423,-1.18853 3.92899,-1.47198 8.587,-5.6056 10.49788,-9.31602 1.69462,-3.29051 2.23793,-5.33794 2.38714,-8.995834 0.20938,-5.132946 -0.90148,-8.892261 -3.82786,-12.954061 -3.48965,-4.843605 -8.44548,-7.64344 -15.02539,-8.488705 -2.89618,-0.372049 -2.89618,-0.372049 -0.23078,-0.260319 5.01179,0.210088 9.36391,2.088547 13.14273,5.67266 2.53573,2.405061 4.28048,4.976727 5.39472,7.951486 2.08697,5.571721 1.80066,11.343168 -0.83393,16.810193 -2.06998,4.29541 -5.47742,7.70843 -9.79779,9.81383 -2.43879,1.18847 -2.89884,1.32889 -3.12972,0.9553 z m -10.12288,-1.22503 c -2.06405,-0.47089 -4.4603,-1.43794 -6.37092,-2.57111 -1.64983,-0.9785 -5.2268,-4.40992 -5.97891,-5.73561 -0.44556,-0.78537 -0.4479,-0.8567 -0.0334,-1.01577 0.27812,-0.10672 0.5393,-0.004 0.69432,0.27297 0.66189,1.18273 3.08441,3.77323 4.54072,4.85557 6.7865,5.04379 15.78323,5.04379 22.56972,0 3.17337,-2.35848 5.81607,-6.39914 6.87352,-10.509529 0.75121,-2.920009 0.50275,-7.752817 -0.5509,-10.715625 -0.17618,-0.49542 -0.16378,-0.499537 0.19448,-0.06456 1.11395,1.352516 1.51056,8.375108 0.65053,11.51851 -0.62123,2.270584 -2.07806,5.179054 -3.50446,6.996434 -2.39149,3.047 -6.37223,5.69757 -10.05324,6.69392 -2.20151,0.59589 -6.98593,0.74147 -9.03147,0.2748 z m 0.5648,-2.27456 c -6.00082,-1.20829 -11.1039,-5.79524 -12.95049,-11.640666 -1.0582,-3.34977 -1.14699,-7.799712 -0.15562,-7.799712 0.26737,0 0.33821,0.559852 0.30128,2.38125 -0.0962,4.745511 1.40459,8.427068 4.86619,11.936928 1.64726,1.67023 2.56961,2.36325 4.15125,3.1191 4.83896,2.31248 10.00925,2.30241 14.72706,-0.0287 2.12485,-1.04991 5.13362,-3.63212 6.15189,-5.2797 0.30997,-0.50156 0.62312,-0.85239 0.69589,-0.77963 0.2854,0.2854 -1.10596,2.07159 -2.96885,3.81132 -2.20001,2.05457 -4.84199,3.50435 -7.54256,4.13894 -1.81693,0.42696 -5.501,0.49828 -7.27604,0.14087 z m 0.77818,-2.48815 c -0.72534,-0.53381 -0.31434,-0.62559 3.32966,-0.74349 2.94305,-0.0952 3.12848,-0.13689 5.31196,-1.19376 5.33737,-2.58343 8.45622,-8.221232 7.72087,-13.956644 -0.52403,-4.087199 -2.38623,-7.336983 -5.49699,-9.593003 -2.06243,-1.495737 -2.05164,-1.884555 0.0128,-0.462694 3.68944,2.541014 5.81586,6.360365 6.11406,10.981738 0.27755,4.301192 -1.09385,7.855833 -4.24752,11.009513 -2.09442,2.09442 -4.22616,3.32179 -6.83961,3.93797 -2.16073,0.50945 -5.22636,0.52002 -5.90527,0.0204 z m -5.15815,-2.22835 c -1.73705,-1.11382 -4.04659,-3.68182 -4.98739,-5.54554 -4.14742,-8.216006 0.32396,-18.257712 9.15392,-20.557626 1.50228,-0.391293 5.73721,-0.542822 6.5418,-0.234071 0.23019,0.08833 0.41852,0.325156 0.41852,0.526282 0,0.295333 -0.44538,0.335365 -2.31511,0.20809 -10.81222,-0.735999 -18.16988,10.350634 -13.28773,20.022135 0.96763,1.91685 3.30735,4.49659 4.95336,5.4615 0.61846,0.36255 1.12448,0.70739 1.12448,0.76633 0,0.2595 -0.50802,0.0543 -1.60185,-0.6471 z m 4.15943,-0.85275 c -1.98581,-0.68311 -3.19027,-1.45391 -4.76016,-3.04629 -4.6044,-4.670373 -4.38844,-12.306949 0.47223,-16.698975 4.80533,-4.342011 11.6469,-4.213448 16.17979,0.304039 2.62846,2.619531 3.7228,5.502783 3.46983,9.141973 -0.23945,3.444778 -1.84691,6.395503 -4.64293,8.522803 -2.9645,2.25547 -7.25777,2.96701 -10.71876,1.77645 z m 5.56113,-6.612711 c 1.00353,-0.380227 1.88269,-1.234269 2.49037,-2.41923 0.51695,-1.008035 0.68371,-2.590228 0.273,-2.590228 -0.12673,0 -1.45967,0.353776 -2.96209,0.78617 -1.50243,0.432394 -2.75705,0.759816 -2.78806,0.727604 -0.031,-0.03221 0.28303,-1.365197 0.69788,-2.962191 0.41484,-1.596993 0.71376,-2.944124 0.66426,-2.993623 -0.1981,-0.198095 -1.98161,0.285 -2.72805,0.738938 -4.20273,2.55583 -2.51916,8.942406 2.36832,8.984175 0.68175,0.0058 1.57472,-0.1164 1.98437,-0.271615 z m -20.74634,-0.936693 c -0.11256,-0.27549 -0.19571,-2.048703 -0.18476,-3.940474 0.0227,-3.926692 0.56093,-6.043515 2.36573,-9.304509 1.45652,-2.631705 4.95224,-6.009474 7.6835,-7.42424 5.87449,-3.042925 12.32975,-3.062895 18.10934,-0.05602 2.54686,1.325028 5.58721,4.000661 5.10826,4.495495 -0.24761,0.255827 -0.69171,-0.01906 -2.0676,-1.279816 -1.95633,-1.792623 -5.07727,-3.465515 -7.80351,-4.182851 -2.24546,-0.590831 -6.41012,-0.593281 -8.86354,-0.0052 -3.28681,0.787823 -6.0557,2.36585 -8.62562,4.915847 -2.43246,2.413608 -3.76402,4.492323 -4.72919,7.382813 -0.79849,2.391295 -1.15019,5.656659 -0.8477,7.870562 0.25744,1.884244 0.20905,2.394668 -0.14491,1.528411 z m 35.04705,-2.726042 c 0.44159,-8.01384 -4.57507,-14.851386 -12.35843,-16.844147 -1.28962,-0.330178 -2.46665,-0.408789 -4.7625,-0.318077 -2.63192,0.103991 -3.3394,0.235083 -5.1662,0.957276 -2.51581,0.994579 -5.26642,2.955182 -6.66352,4.74968 -2.39398,3.074937 -2.29999,2.976829 -1.63143,1.703022 1.58381,-3.017641 5.4025,-6.042254 9.22735,-7.308565 1.86363,-0.617003 2.71207,-0.745008 5.02072,-0.757483 3.35242,-0.01812 5.36095,0.464059 8.33438,2.00078 3.89164,2.011267 7.33046,6.307909 8.42734,10.529572 0.85491,3.290324 0.77793,7.679142 -0.13778,7.855492 -0.38925,0.07496 -0.42036,-0.200524 -0.28993,-2.56755 z"
       id="path26"
       inkscape:export-filename="MyRobot-Logo-Laranja.svg"
       inkscape:export-xdpi="96"
       inkscape:export-ydpi="96" /></g></svg>
