<?xml version="1.0" standalone="no"?>
<!DOCTYPE svg PUBLIC "-//W3C//DTD SVG 20010904//EN"
 "http://www.w3.org/TR/2001/REC-SVG-20010904/DTD/svg10.dtd">
<svg version="1.0" xmlns="http://www.w3.org/2000/svg"
 width="1080.000000pt" height="1080.000000pt" viewBox="0 0 1080.000000 1080.000000"
 preserveAspectRatio="xMidYMid meet">

<g transform="translate(0.000000,1080.000000) scale(0.100000,-0.100000)"
fill="#000000" stroke="none">
<path d="M4952 6404 c-79 -17 -167 -52 -236 -94 -123 -75 -262 -219 -323 -337
l-28 -52 -14 37 c-25 64 -96 166 -157 226 -72 70 -162 122 -269 155 -80 25
-82 25 -592 29 l-513 4 0 -171 0 -171 65 0 65 0 0 -615 0 -615 245 0 245 0 0
110 0 110 159 0 c87 0 172 3 188 6 28 6 35 -2 221 -250 106 -140 196 -257 200
-260 7 -4 346 244 381 279 12 11 -11 46 -150 232 -90 120 -169 225 -175 233
-9 12 -4 25 22 64 28 42 34 47 40 30 24 -74 61 -158 92 -209 46 -75 159 -195
239 -251 284 -203 665 -203 963 -1 54 37 157 140 199 198 l31 42 0 -166 0
-167 463 0 c509 0 549 4 663 60 70 34 169 133 200 198 l19 39 78 -83 c210
-224 491 -315 783 -255 295 61 541 285 634 576 41 129 38 408 -6 513 l-13 32
80 0 79 0 0 -540 0 -540 245 0 245 0 0 540 0 540 200 0 200 0 0 245 0 245
-647 -2 -648 -3 -3 -67 -3 -67 -47 36 c-71 55 -216 119 -312 138 -117 24 -316
17 -415 -15 -148 -47 -243 -107 -363 -230 -94 -95 -149 -183 -193 -305 l-18
-50 0 89 c-1 48 -8 115 -17 149 -38 146 -169 272 -319 305 -65 15 -161 17
-557 14 l-328 -2 0 -162 -1 -163 -26 35 c-52 68 -171 179 -239 222 -86 56
-178 94 -269 113 -87 18 -278 18 -363 -1z m1664 -425 c48 -29 63 -82 38 -134
-25 -54 -60 -65 -204 -65 l-120 0 0 110 0 110 126 0 c111 0 131 -3 160 -21z
m-1466 -66 c0 -10 -22 -105 -49 -210 -27 -106 -46 -195 -43 -197 4 -1 90 21
192 50 102 29 195 55 208 59 21 5 22 2 22 -49 0 -123 -78 -240 -198 -298 -218
-104 -472 48 -490 292 -8 121 47 232 151 304 82 56 207 86 207 49z m2705 -190
c-29 -115 -50 -211 -46 -214 3 -3 88 18 189 47 101 28 195 55 209 59 l26 6 -6
-70 c-7 -85 -31 -141 -86 -203 -49 -55 -140 -103 -218 -113 -142 -19 -306 83
-364 225 -23 56 -18 204 8 262 25 54 103 137 154 164 43 22 115 42 155 43 l31
1 -52 -207z m-4059 138 c107 -49 138 -190 61 -278 -50 -57 -76 -63 -257 -63
l-160 0 0 180 0 180 158 0 c132 0 164 -3 198 -19z m3263 -128 c-9 -50 -14 -60
-28 -56 -16 4 -16 8 6 50 13 26 23 53 23 61 0 9 2 13 5 11 2 -3 0 -33 -6 -66z
m-347 -333 c20 -6 46 -22 58 -37 24 -31 27 -99 4 -131 -32 -46 -60 -52 -259
-52 l-185 0 0 115 0 115 173 0 c94 0 189 -5 209 -10z"/>
<path d="M1122 5643 l3 -398 120 0 120 0 5 184 5 183 78 -101 c42 -55 81 -101
85 -101 4 1 41 46 82 101 l75 101 5 -184 5 -183 120 0 120 0 3 398 2 397 -123
0 -124 0 -82 -105 c-45 -58 -85 -105 -89 -105 -4 1 -42 48 -85 105 l-77 105
-125 0 -125 0 2 -397z"/>
<path d="M2001 5983 c49 -88 167 -290 208 -358 l36 -60 5 -160 5 -160 123 -3
122 -3 0 149 0 148 140 245 c77 134 140 247 140 252 0 4 -64 7 -142 7 l-143 0
-55 -95 c-30 -52 -57 -95 -61 -95 -4 0 -32 43 -63 95 l-57 95 -145 0 -145 0
32 -57z"/>
<path d="M1120 5100 l0 -80 691 2 691 3 0 75 0 75 -691 3 -691 2 0 -80z"/>
<path d="M7792 4578 c-18 -18 -16 -202 1 -217 20 -16 27 -4 27 46 l0 43 179 0
180 0 3 -47 c2 -35 7 -48 18 -48 12 0 16 20 18 104 3 116 0 133 -23 125 -10
-4 -15 -20 -15 -50 l0 -44 -180 0 -180 0 0 44 c0 48 -10 62 -28 44z"/>
<path d="M9287 4584 c-4 -4 -7 -56 -7 -116 l0 -108 216 0 c200 0 215 1 212 18
-3 15 -22 17 -195 20 l-192 2 -3 92 c-3 84 -12 111 -31 92z"/>
<path d="M6807 4562 c-23 -25 -21 -68 3 -92 18 -18 33 -20 189 -20 125 0 171
-3 179 -13 26 -31 -2 -37 -193 -39 -172 -3 -190 -5 -193 -20 -3 -17 11 -18
193 -18 116 0 204 4 216 10 25 14 27 81 3 101 -13 10 -65 15 -193 19 -173 5
-176 5 -179 27 l-3 23 193 2 c174 3 193 5 196 21 3 16 -11 17 -196 17 -180 0
-200 -2 -215 -18z"/>
<path d="M7318 4551 c-29 -26 -33 -35 -33 -81 0 -46 4 -55 33 -81 l32 -29 178
0 c98 0 182 3 185 7 4 3 2 12 -4 20 -9 10 -52 13 -185 13 -167 0 -173 1 -188
22 -22 31 -20 74 4 98 18 18 33 20 189 20 129 0 171 3 180 13 6 8 8 17 4 20
-3 4 -87 7 -185 7 l-178 0 -32 -29z"/>
<path d="M8327 4557 c-55 -44 -54 -137 2 -177 26 -18 44 -20 171 -20 115 0
147 3 171 17 59 35 64 126 9 176 -30 27 -31 27 -178 27 -137 0 -149 -2 -175
-23z m337 -39 c9 -12 16 -34 16 -48 0 -14 -7 -36 -16 -48 -14 -21 -22 -22
-159 -22 -143 0 -144 0 -164 26 -12 15 -21 34 -21 44 0 10 9 29 21 44 20 26
21 26 164 26 137 0 145 -1 159 -22z"/>
<path d="M8811 4549 c-26 -26 -31 -38 -31 -79 0 -41 5 -53 31 -79 l31 -31 151
0 c129 0 155 3 173 18 45 36 57 98 30 151 -23 44 -53 51 -211 51 l-143 0 -31
-31z m343 -31 c21 -29 20 -77 -1 -100 -14 -16 -33 -18 -158 -18 -129 0 -144 2
-160 20 -22 25 -22 76 1 101 15 17 32 19 160 19 136 0 144 -1 158 -22z"/>
</g>
</svg>
