<?xml version="1.0" encoding="UTF-8" standalone="no"?>
<!-- Created with Inkscape (http://www.inkscape.org/) -->

<svg
   width="62.15749mm"
   height="62.164249mm"
   viewBox="0 0 62.15749 62.164249"
   version="1.1"
   id="svg1"
   xml:space="preserve"
   xmlns:inkscape="http://www.inkscape.org/namespaces/inkscape"
   xmlns:sodipodi="http://sodipodi.sourceforge.net/DTD/sodipodi-0.dtd"
   xmlns="http://www.w3.org/2000/svg"
   xmlns:svg="http://www.w3.org/2000/svg"><sodipodi:namedview
     id="namedview1"
     pagecolor="#ffffff"
     bordercolor="#000000"
     borderopacity="0.25"
     inkscape:showpageshadow="2"
     inkscape:pageopacity="0.0"
     inkscape:pagecheckerboard="0"
     inkscape:deskcolor="#d1d1d1"
     inkscape:document-units="mm"><inkscape:page
       x="0"
       y="0"
       width="62.15749"
       height="62.164249"
       id="page2"
       margin="0"
       bleed="0" /></sodipodi:namedview><defs
     id="defs1" /><g
     inkscape:label="Camada 1"
     inkscape:groupmode="layer"
     id="layer1"
     transform="translate(-13.063288,-65.645821)"><path
       style="fill:#000000"
       d="m 13.063288,127.55621 c 0,-0.13962 1.131094,-3.60969 2.513542,-7.71126 1.382448,-4.10158 2.513541,-7.66767 2.513541,-7.92465 0,-0.25698 -0.532307,-1.57917 -1.182904,-2.93821 C 9.68903,93.90345 16.118509,75.98074 31.364349,68.68233 c 11.78737,-5.642802 25.659561,-3.283762 34.897011,5.9344 8.83667,8.81822 11.40772,22.02782 6.49778,33.38444 -6.7874,15.69915 -25.330211,22.79764 -40.927751,15.66781 l -2.09175,-0.95616 -8.041352,2.54862 c -4.422745,1.40175 -8.174925,2.54863 -8.338177,2.54863 -0.163252,0 -0.296822,-0.11424 -0.296822,-0.25386 z m 37.100741,-6.61796 c 4.60127,-1.01747 8.483511,-3.09358 11.987911,-6.41079 3.62013,-3.42674 5.74471,-6.8302 7.18625,-11.51194 0.66237,-2.15119 0.71596,-2.67183 0.71596,-6.95545 0,-4.28363 -0.0536,-4.80426 -0.71596,-6.95545 -1.33539,-4.337 -3.10105,-7.33167 -6.25064,-10.60152 -3.3484,-3.47626 -7.051681,-5.71869 -11.659681,-7.06025 -3.00572,-0.87508 -9.06735,-1.01917 -12.34869,-0.29355 -6.76682,1.49638 -12.83599,5.81976 -16.478305,11.73832 -4.854444,7.88821 -4.894437,18.43849 -0.09921,26.17076 l 1.209713,1.95065 -1.392652,4.23333 c -0.765959,2.32833 -1.448111,4.38216 -1.515895,4.56406 -0.207785,0.55761 0.644793,0.38547 5.130921,-1.03595 l 4.313376,-1.36669 2.45443,1.21701 c 4.37569,2.16965 6.95173,2.78037 11.84715,2.80869 2.35304,0.0136 3.97322,-0.12812 5.61532,-0.49123 z m -0.437,-11.13475 c -7.28431,-2.13881 -12.06257,-5.66302 -16.72306,-12.33407 -2.43259,-3.48204 -3.06315,-5.01329 -3.21195,-7.79986 -0.10809,-2.02414 -0.0469,-2.45341 0.52805,-3.70417 0.83109,-1.808 1.93525,-3.1103 3.02212,-3.56442 1.04822,-0.43797 3.08928,-0.21358 3.62396,0.39842 0.62252,0.71255 2.82006,6.20799 2.82006,7.05222 0,0.5428 -0.37075,1.2402 -1.19063,2.2397 -0.65484,0.7983 -1.19062,1.58245 -1.19062,1.74257 0,0.16011 0.58323,1.1216 1.29607,2.13665 1.90611,2.7142 4.46257,4.93136 7.32374,6.35172 2.84729,1.41347 2.89815,1.40328 4.74801,-0.95129 0.67778,-0.86271 1.39801,-1.63215 1.60051,-1.70985 0.2025,-0.0777 0.81917,0.0178 1.37039,0.21232 1.47307,0.51973 5.987091,2.81933 6.212951,3.16509 0.32132,0.49189 0.2282,1.84766 -0.21655,3.15291 -1.11654,3.27687 -5.620781,4.90171 -10.013051,3.61206 z"
       id="path1" /></g></svg>
